<svg width="57" height="57" viewBox="0 0 57 57" fill="none" xmlns="http://www.w3.org/2000/svg">
<path d="M13.8673 24.0718C8.63878 25.3152 4.75 30.0159 4.75 35.625C4.75 42.1833 10.0666 47.5 16.625 47.5C17.75 47.5 18.8385 47.3436 19.8698 47.0512" stroke="#4A77CA" stroke-width="4" stroke-linecap="round" stroke-linejoin="round"/>
<path d="M42.8151 24.0718C48.0436 25.3152 51.9323 30.0159 51.9323 35.625C51.9323 42.1833 46.6158 47.5 40.0573 47.5C38.9323 47.5 37.8438 47.3436 36.8125 47.0512" stroke="#4A77CA" stroke-width="4" stroke-linecap="round" stroke-linejoin="round"/>
<path d="M42.75 23.75C42.75 15.88 36.37 9.5 28.5 9.5C20.63 9.5 14.25 15.88 14.25 23.75" stroke="#4A77CA" stroke-width="4" stroke-linecap="round" stroke-linejoin="round"/>
<path d="M20.2656 35.7663L28.5003 44.0282L36.9695 35.625" stroke="#4A77CA" stroke-width="4" stroke-linecap="round" stroke-linejoin="round"/>
<path d="M28.5 23.75V39.8266" stroke="#4A77CA" stroke-width="4" stroke-linecap="round" stroke-linejoin="round"/>
</svg>
