<svg width="20" height="20" viewBox="0 0 20 20" fill="none" xmlns="http://www.w3.org/2000/svg">
<path d="M17.5 1H2.5C1.67157 1 1 1.67157 1 2.5V17.5C1 18.3284 1.67157 19 2.5 19H17.5C18.3284 19 19 18.3284 19 17.5V2.5C19 1.67157 18.3284 1 17.5 1Z" fill="#999999"/>
<path d="M5.41699 12.9166V7.08331H8.75033" stroke="white" stroke-width="1.2" stroke-linecap="round" stroke-linejoin="round"/>
<path d="M5.41699 10H8.54199" stroke="white" stroke-width="1.2" stroke-linecap="round" stroke-linejoin="round"/>
<path d="M5.41699 12.9167H8.54199" stroke="white" stroke-width="1.2" stroke-linecap="round" stroke-linejoin="round"/>
<path d="M10.833 12.9167V7.91669" stroke="white" stroke-width="1.2" stroke-linecap="round" stroke-linejoin="round"/>
<path d="M10.833 12.9166V10.2083C10.833 9.17277 11.6725 8.33331 12.708 8.33331C13.7435 8.33331 14.583 9.17277 14.583 10.2083V12.9166" stroke="white" stroke-width="1.2" stroke-linecap="round" stroke-linejoin="round"/>
</svg>
